<mxfile host="app.diagrams.net" agent="Mozilla/5.0 (X11; Linux x86_64) AppleWebKit/537.36 (KHTML, like Gecko) Chrome/135.0.0.0 Safari/537.36" version="27.0.3">
  <diagram id="Ht1M8jgEwFfnCIfOTk4-" name="Page-1">
    <mxGraphModel dx="820" dy="577" grid="0" gridSize="10" guides="1" tooltips="1" connect="1" arrows="1" fold="1" page="0" pageScale="1" pageWidth="1169" pageHeight="827" math="0" shadow="0">
      <root>
        <mxCell id="0" />
        <mxCell id="1" parent="0" />
        <mxCell id="VleaqL3hFp6XI6EK1_Yz-1" value="" style="sketch=0;points=[[0,0,0],[0.25,0,0],[0.5,0,0],[0.75,0,0],[1,0,0],[0,1,0],[0.25,1,0],[0.5,1,0],[0.75,1,0],[1,1,0],[0,0.25,0],[0,0.5,0],[0,0.75,0],[1,0.25,0],[1,0.5,0],[1,0.75,0]];outlineConnect=0;fontColor=#232F3E;fillColor=#ED7100;strokeColor=#ffffff;dashed=0;verticalLabelPosition=bottom;verticalAlign=top;align=center;html=1;fontSize=12;fontStyle=0;aspect=fixed;shape=mxgraph.aws4.resourceIcon;resIcon=mxgraph.aws4.ec2;" vertex="1" parent="1">
          <mxGeometry x="493" y="200.49" width="78" height="78" as="geometry" />
        </mxCell>
        <mxCell id="VleaqL3hFp6XI6EK1_Yz-2" value="EC2 Instance" style="text;html=1;align=center;verticalAlign=middle;whiteSpace=wrap;rounded=0;" vertex="1" parent="1">
          <mxGeometry x="487" y="275.99" width="93" height="30" as="geometry" />
        </mxCell>
        <mxCell id="VleaqL3hFp6XI6EK1_Yz-10" value="" style="shape=image;verticalLabelPosition=bottom;labelBackgroundColor=default;verticalAlign=top;aspect=fixed;imageAspect=0;image=https://destatic.blob.core.windows.net/images/django-logo.png;" vertex="1" parent="1">
          <mxGeometry x="625.78" y="118" width="54" height="54" as="geometry" />
        </mxCell>
        <mxCell id="VleaqL3hFp6XI6EK1_Yz-12" value="" style="shape=image;verticalLabelPosition=bottom;labelBackgroundColor=default;verticalAlign=top;aspect=fixed;imageAspect=0;image=https://upload.wikimedia.org/wikipedia/commons/thumb/3/30/React_Logo_SVG.svg/langfr-250px-React_Logo_SVG.svg.png;" vertex="1" parent="1">
          <mxGeometry x="624" y="315.5" width="55.73" height="51.5" as="geometry" />
        </mxCell>
        <mxCell id="VleaqL3hFp6XI6EK1_Yz-14" value="" style="shape=image;verticalLabelPosition=bottom;labelBackgroundColor=default;verticalAlign=top;aspect=fixed;imageAspect=0;image=https://bobcares.com/wp-content/uploads/2022/06/mysql.png;" vertex="1" parent="1">
          <mxGeometry x="625.78" y="209.57" width="52.43" height="52.43" as="geometry" />
        </mxCell>
        <mxCell id="VleaqL3hFp6XI6EK1_Yz-16" value="" style="shape=curlyBracket;whiteSpace=wrap;html=1;rounded=1;labelPosition=left;verticalLabelPosition=middle;align=right;verticalAlign=middle;" vertex="1" parent="1">
          <mxGeometry x="586" y="140.54000000000002" width="20" height="203" as="geometry" />
        </mxCell>
        <mxCell id="VleaqL3hFp6XI6EK1_Yz-19" value="" style="sketch=0;outlineConnect=0;fontColor=#232F3E;gradientColor=none;fillColor=#ED7100;strokeColor=none;dashed=0;verticalLabelPosition=bottom;verticalAlign=top;align=center;html=1;fontSize=12;fontStyle=0;aspect=fixed;pointerEvents=1;shape=mxgraph.aws4.instance2;" vertex="1" parent="1">
          <mxGeometry x="1111" y="314" width="48" height="48" as="geometry" />
        </mxCell>
        <mxCell id="VleaqL3hFp6XI6EK1_Yz-24" value="" style="shape=image;verticalLabelPosition=bottom;labelBackgroundColor=default;verticalAlign=top;aspect=fixed;imageAspect=0;image=https://seeklogo.com/images/N/ngrok-logo-606908B38B-seeklogo.com.png;" vertex="1" parent="1">
          <mxGeometry x="993" y="313.21999999999997" width="49.1" height="49.1" as="geometry" />
        </mxCell>
        <mxCell id="VleaqL3hFp6XI6EK1_Yz-26" value="" style="shape=image;verticalLabelPosition=bottom;labelBackgroundColor=default;verticalAlign=top;aspect=fixed;imageAspect=0;image=https://www.dataquest.io/wp-content/uploads/2023/06/Google_Colaboratory_SVG_Logo.svg;" vertex="1" parent="1">
          <mxGeometry x="1185" y="365.00000000000006" width="55.17" height="34" as="geometry" />
        </mxCell>
        <mxCell id="VleaqL3hFp6XI6EK1_Yz-32" value="" style="shape=image;verticalLabelPosition=bottom;labelBackgroundColor=default;verticalAlign=top;aspect=fixed;imageAspect=0;image=https://res.cloudinary.com/harendra21/image/upload/v1742473055/withcodeexample.com/getting-started-with-python-fastapi-a-comprehensive-guide_tnigh2.jpg;fontStyle=1" vertex="1" parent="1">
          <mxGeometry x="1176.24" y="268.5" width="72.68" height="47" as="geometry" />
        </mxCell>
        <mxCell id="VleaqL3hFp6XI6EK1_Yz-35" value="" style="endArrow=classic;html=1;rounded=0;exitX=1;exitY=0.5;exitDx=0;exitDy=0;" edge="1" parent="1" source="VleaqL3hFp6XI6EK1_Yz-12" target="VleaqL3hFp6XI6EK1_Yz-24">
          <mxGeometry width="50" height="50" relative="1" as="geometry">
            <mxPoint x="692" y="341" as="sourcePoint" />
            <mxPoint x="989" y="338" as="targetPoint" />
          </mxGeometry>
        </mxCell>
        <mxCell id="VleaqL3hFp6XI6EK1_Yz-36" value="" style="shape=curlyBracket;whiteSpace=wrap;html=1;rounded=1;labelPosition=left;verticalLabelPosition=middle;align=right;verticalAlign=middle;" vertex="1" parent="1">
          <mxGeometry x="1165" y="293.66" width="20" height="93.77" as="geometry" />
        </mxCell>
        <mxCell id="VleaqL3hFp6XI6EK1_Yz-38" value="" style="endArrow=classic;html=1;rounded=0;exitX=1;exitY=0.5;exitDx=0;exitDy=0;" edge="1" parent="1" source="VleaqL3hFp6XI6EK1_Yz-24" target="VleaqL3hFp6XI6EK1_Yz-19">
          <mxGeometry width="50" height="50" relative="1" as="geometry">
            <mxPoint x="1095" y="319" as="sourcePoint" />
            <mxPoint x="1145" y="269" as="targetPoint" />
          </mxGeometry>
        </mxCell>
        <mxCell id="VleaqL3hFp6XI6EK1_Yz-39" value="" style="shape=crossbar;whiteSpace=wrap;html=1;rounded=1;direction=south;" vertex="1" parent="1">
          <mxGeometry x="1243" y="292" width="20" height="96" as="geometry" />
        </mxCell>
        <mxCell id="VleaqL3hFp6XI6EK1_Yz-42" value="" style="endArrow=classic;html=1;rounded=0;entryX=0.974;entryY=0.364;entryDx=0;entryDy=0;entryPerimeter=0;" edge="1" parent="1" source="VleaqL3hFp6XI6EK1_Yz-39" target="VleaqL3hFp6XI6EK1_Yz-10">
          <mxGeometry width="50" height="50" relative="1" as="geometry">
            <mxPoint x="1320" y="301" as="sourcePoint" />
            <mxPoint x="1365" y="161" as="targetPoint" />
            <Array as="points">
              <mxPoint x="1358" y="340" />
              <mxPoint x="1355" y="135" />
            </Array>
          </mxGeometry>
        </mxCell>
        <mxCell id="VleaqL3hFp6XI6EK1_Yz-46" value="" style="shape=image;verticalLabelPosition=bottom;labelBackgroundColor=default;verticalAlign=top;aspect=fixed;imageAspect=0;image=https://marketplace.commercetools.com/img/containers/assets/cloudinary_logo_blue_769x537.png/8e29c2855e06be62262107337a1818ec.png;" vertex="1" parent="1">
          <mxGeometry x="1444" y="328" width="105.97" height="74" as="geometry" />
        </mxCell>
        <mxCell id="VleaqL3hFp6XI6EK1_Yz-48" value="" style="endArrow=classic;startArrow=classic;html=1;rounded=0;edgeStyle=elbowEdgeStyle;elbow=vertical;" edge="1" parent="1" source="VleaqL3hFp6XI6EK1_Yz-26" target="VleaqL3hFp6XI6EK1_Yz-46">
          <mxGeometry width="50" height="50" relative="1" as="geometry">
            <mxPoint x="1077" y="313" as="sourcePoint" />
            <mxPoint x="1127" y="263" as="targetPoint" />
            <Array as="points">
              <mxPoint x="1354" y="417" />
            </Array>
          </mxGeometry>
        </mxCell>
        <mxCell id="VleaqL3hFp6XI6EK1_Yz-50" value="FastAPI" style="text;html=1;align=center;verticalAlign=middle;whiteSpace=wrap;rounded=0;" vertex="1" parent="1">
          <mxGeometry x="1182" y="247.49" width="60" height="30" as="geometry" />
        </mxCell>
      </root>
    </mxGraphModel>
  </diagram>
</mxfile>
